<?xml version="1.0" encoding="UTF-8" standalone="no"?>
<!-- Created with Inkscape (http://www.inkscape.org/) -->

<svg
   xmlns:dc="http://purl.org/dc/elements/1.1/"
   xmlns:cc="http://creativecommons.org/ns#"
   xmlns:rdf="http://www.w3.org/1999/02/22-rdf-syntax-ns#"
   xmlns:svg="http://www.w3.org/2000/svg"
   xmlns="http://www.w3.org/2000/svg"
   version="1.0"
   width="2447.7222"
   height="2447.7222"
   viewBox="0 0 1958.1777 1958.1777"
   id="svg2">
  <defs
     id="defs84" />
  <metadata
     id="metadata4">
Created by potrace 1.10, written by Peter Selinger 2001-2011
<rdf:RDF>
  <cc:Work
     rdf:about="">
    <dc:format>image/svg+xml</dc:format>
    <dc:type
       rdf:resource="http://purl.org/dc/dcmitype/StillImage" />
    <dc:title></dc:title>
  </cc:Work>
</rdf:RDF>
</metadata>
  <rect
     width="1958.1777"
     height="1958.1777"
     x="0"
     y="-1.5449881e-16"
     id="rect3063"
     style="fill:#000000;fill-opacity:1" />
  <path
     d="m 579.56703,452.60122 c 16,17 31.8,33.8 35,37.2 3.3,3.5 6.1,6.3 6.3,6.3 0.3,0 6.5,-3.8 13.8,-8.3 40.2,-25.2 68.6,-37.6 104.8,-45.7 14.7,-3.3 46.2,-8 53.5,-8 5.3,0 5.2,-0.6 3,14.3 -1.5,9.9 -5,24.9 -8.2,35.2 -8.1,25.9 -26.2,60.6 -43.7,83.9 l -5.9,7.8 13.9,14 c 7.6,7.6 23.7,23.4 35.7,35 l 21.7,21 13.7,-12.8 c 47.4,-44.6 58.8,-55.7 58.7,-56.7 -0.1,-0.7 -3.7,-5.9 -8,-11.7 -28.4,-37.5 -43.8,-71.2 -49.4,-107.8 -1.1,-7 -2,-15.1 -2,-18.1 l 0,-5.4 9.1,0.7 c 16.2,1.2 38.7,6.5 54.9,12.8 8.4,3.3 25.4,11.6 29.7,14.6 1.5,1 5.2,3.5 8.2,5.5 7.8,5.3 23.9,18.7 30,25.1 2.8,3.1 5.5,5.6 5.8,5.6 0.3,0 5.6,-2 11.7,-4.3 21.2,-8.4 27.19997,-10.5 44.59997,-16.2 60.7,-19.6 103.2,-27.3 190.5,-34.4 33.7,-2.8 45.4,-3.5 102.5,-6.1 20.9,-1 86.8,-3 98.8,-3 l 5.3,0 -0.3,-12.1 -0.3,-12.1 -41.6,-0.4 c -134.9,-1.1 -263.3,-16 -344.4,-39.8 -18.3,-5.4 -44.29997,-14.59996 -59.29997,-20.89996 l -8.3,-3.6 -8.7,8.8 c -31.6,31.69996 -70.1,49.79996 -115,54.09996 -15.9,1.5 -14.5,2 -13.7,-5.3 2.3,-21.1 6.3,-39.7 12.2,-56.69996 6.8,-19.6 22.5,-47.4 36.8,-64.8 3.3,-4.1 7.1,-8.7 8.5,-10.4 l 2.4,-3 -10,-9.6 c -31.1,-30.2 -57.6,-55.5 -59.6,-57.1 l -2.3,-1.8 -35.5,33.7 c -19.5,18.6 -35.5,34.3 -35.5,34.9 0,0.6 2.1,3.7 4.6,6.9 17.4,21.8 33.8,52.6 43.3,81.19996 5.1,15.5 10.5,41.3 10.6,50.9 l 0,2.4 -11.6,-0.7 c -36.9,-2.2 -74.9,-12.6 -111.9,-30.6 -19.3,-9.4 -32.9,-17.9 -46.6,-29.19996 l -4.7,-3.8 -26.8,28.19996 c -14.7,15.6 -30.9,32.5 -35.9,37.6 -4.9,5.1 -9.1,9.8 -9.2,10.5 -0.2,0.7 12.8,15.1 28.8,32.2 z"
     id="path8"
     style="fill:#ffffff;stroke:none" />
  <g
     transform="translate(103.06374,106.29402)"
     id="g3057">
    <path
       d="m 845.89841,543.3785 c -91.1,6.1 -179,35.4 -255.6,85.2 -11.2,7.2 -12.2,8.1 -11,9.8 0.7,1 11.7,16.9 24.3,35.4 12.7,18.5 23.7,34.6 24.6,35.8 l 1.6,2.1 3.2,-2.7 c 1.8,-1.5 3.8,-2.7 4.4,-2.7 0.6,0 2,-0.8 3.1,-1.8 3.2,-2.8 36.6,-22.1 46.6,-26.9 2.3,-1.1 9.5,-4.4 20.5,-9.3 2.2,-0.9 5.6,-2.5 7.7,-3.4 2,-0.9 4.1,-1.6 4.7,-1.6 0.6,0 1.9,-0.4 2.9,-1 1.9,-1.1 14,-5.6 19.2,-7.2 1.9,-0.5 3.9,-1.4 4.5,-1.9 1.7,-1.7 3.5,-0.9 4.1,1.8 0.8,3.7 12.5,42.7 13,43.2 0.2,0.2 5,-0.8 10.6,-2.2 30.9,-7.9 60.7,-11.7 91.5,-11.7 l 14.4,0 -0.2,-25.7 -0.2,-25.7 12.4,0.2 c 16.2,0.3 28.4,1.6 56.4,5.8 22.5,3.3 28.7,4.6 41,7.9 3.3,0.9 7.7,1.9 9.8,2.2 1.99999,0.3 3.99999,0.9 4.29999,1.4 0.3,0.5 1.6,0.9 2.9,0.9 1.3,0 2.7,0.4 3,1 1.1,1.9 2.4,1 3.4,-2.3 0.5,-1.7 1.9,-6.4 3.1,-10.2 1.2,-3.9 3,-9.7 4,-13 9.2,-30.1 16.3,-52.7 17.6,-55.9 0.8,-2.1 1.3,-4.1 1,-4.3 -0.9,-0.9 -23.7,-7.2 -38.89999,-10.7 -48.7,-11.3 -104.8,-15.8 -153.9,-12.5 z"
       id="path10"
       style="fill:#ffffff;stroke:none" />
    <path
       d="m 1041.0984,569.8785 c -0.6,1.4 -1,3 -1,3.6 0,0.6 -5.4,18.7 -12,40.1 -6.7,21.5 -11.9,39.6 -11.6,40.4 0.3,0.7 1.6,1.3 2.9,1.3 1.3,0 2.7,0.4 3.3,0.8 0.5,0.4 3.4,1.6 6.4,2.6 5.9,1.9 7.4,2.5 13.2,5 2,0.9 4.3,1.6 5.2,1.6 0.9,0 1.6,0.4 1.6,1 0,0.5 0.6,1 1.4,1 1.3,0 6.7,2.2 17.6,7.2 5.3,2.4 8.9,4.3 18.5,9.3 3.9,2.1 8.4,4.5 10,5.3 1.7,0.8 3.2,1.8 3.5,2.1 0.3,0.3 2.1,1.4 4,2.4 4,2.1 6.7,3.7 12.7,7.5 2.3,1.5 7.4,4.7 11.3,7.1 3.8,2.4 7,4.7 7,5.1 0,0.5 -0.6,1.5 -1.3,2.2 -0.7,0.7 -4.9,6.5 -9.2,12.8 -4.3,6.3 -9.8,14.3 -12.2,17.6 -2.3,3.4 -4.3,6.4 -4.3,6.7 0,0.3 5.5,5 12.2,10.4 17.8,14.2 54.4,50.4 68.3,67.5 l 3.1,3.7 16.9,-13.5 c 9.4,-7.5 17.8,-14.5 18.9,-15.6 1,-1.1 2.1,-1.6 2.5,-1.1 2.6,3.1 19.1,26.3 19.1,26.8 0,0.4 1.3,2.4 2.9,4.4 1.5,2 3.6,4.9 4.5,6.6 0.9,1.6 2.1,3.7 2.6,4.5 7,10.6 24,44.7 30.6,61.6 l 4.8,12.1 36.5,-14.7 c 20.1,-8.2 39,-15.9 41.8,-17.1 l 5.2,-2.4 -6,-14.5 c -20.9,-50.4 -49.3,-97.2 -85,-140.1 -13.1,-15.8 -47.8,-50.5 -63.4,-63.5 -51,-42.4 -108.2,-75.1 -166.8,-95.3 l -14.8,-5.1 -0.9,2.6 z"
       id="path12"
       style="fill:#ffffff;stroke:none" />
    <path
       d="m 883.09841,660.1785 0,24.1 13.4,0 c 29.7,0 64.7,4.6 92.3,12.1 4,1.1 8,2.2 9,2.4 1,0.2 7.89999,2.5 15.29999,5 29.9,10.5 56.2,23.5 81.8,40.7 7.7,5.1 10.7,6.6 11.6,5.9 1.1,-0.9 21.7,-30.8 23.9,-34.7 0.4,-0.7 -1,-2.2 -3.1,-3.6 -10,-6.7 -18.2,-11.8 -18.8,-11.8 -0.4,0 -1.5,-0.6 -2.3,-1.4 -1.6,-1.3 -8.8,-5.5 -14.6,-8.4 -1.6,-0.9 -3.2,-1.8 -3.5,-2.1 -1.4,-1.7 -41.2,-20.1 -43.4,-20.1 -0.6,0 -1.6,-0.4 -2.1,-0.9 -0.6,-0.4 -3.5,-1.7 -6.5,-2.7 -3,-1 -5.9,-2.1 -6.5,-2.4 -0.5,-0.4 -4.4,-1.7 -8.5,-2.9 -4.1,-1.2 -8.8,-2.7 -10.5,-3.2 -6.8,-2.4 -20.19999,-6.2 -23.49999,-6.6 -1.9,-0.3 -3.9,-0.9 -4.5,-1.3 -0.5,-0.4 -4.2,-1.3 -8.2,-1.9 -3.9,-0.6 -8.2,-1.5 -9.5,-2 -5.4,-2 -47.4,-6.8 -67.5,-7.7 l -14.3,-0.6 0,24.1 z"
       id="path14"
       style="fill:#ffffff;stroke:none" />
    <path
       d="m 561.99841,648.3785 c -21.7,16.4 -35.1,28.1 -56.9,49.9 -20.4,20.3 -33.5,35.2 -48.1,54.5 -53.3,70.6 -88.6,154 -101.8,241 -1.9,12.6 -5.1,41.2 -5.1,45.8 0,2.2 0.2,2.3 24.8,4 13.6,1 32.4,2.5 41.7,3.3 9.4,0.7 18.6,1.4 20.6,1.4 l 3.6,0 0.7,-8.8 c 0.8,-11 6.5,-50.2 7.5,-52.2 0.5,-0.9 1.2,-3.6 1.6,-6 2.1,-13.1 15.1,-58.5 17.6,-61.3 0.4,-0.5 1.7,-0.2 3,0.6 1.3,0.9 9.4,4.3 17.9,7.6 8.5,3.3 17.1,6.7 19.1,7.5 l 3.7,1.5 4.8,-12.2 c 9.8,-24.9 25.5,-53.4 41.8,-76 3.9,-5.4 7.7,-10.6 8.3,-11.5 1.1,-1.6 -0.6,-3.3 -14.9,-14.7 -8.9,-7.2 -17.4,-13.8 -19,-14.7 l -2.8,-1.8 6.2,-7.7 c 8.8,-11 9.3,-11.5 28.8,-31.5 20.4,-20.9 33.9,-33 50.3,-45.2 10.8,-7.9 11.8,-8.9 10.4,-10.4 -0.8,-0.9 -12.4,-17.7 -25.7,-37.2 -13.4,-19.5 -24.4,-35.6 -24.5,-35.7 -0.1,-0.2 -6.2,4.3 -13.6,9.8 z"
       id="path16"
       style="fill:#ffffff;stroke:none" />
    <path
       d="m 741.59841,658.8785 c -2.2,0.8 -4.9,1.8 -6,2.3 -1.1,0.5 -3.6,1.4 -5.5,2.1 -1.9,0.7 -4.9,1.9 -6.7,2.6 -1.7,0.8 -3.7,1.4 -4.5,1.4 -0.8,0 -1.8,0.4 -2.3,0.8 -0.6,0.5 -3.2,1.7 -6,2.7 -4.8,1.7 -32.1,15 -39.5,19.2 -1.9,1.1 -6.2,3.5 -9.5,5.3 -16.8,9.3 -48.6,31.9 -65,46.1 -16.7,14.5 -47.3,46.3 -58.3,60.5 l -3.2,4.2 17.4,13.9 17.3,14 4.9,-6.1 c 7.7,-9.8 53,-54.5 63.9,-63.2 34.2,-27.2 70.2,-47.3 108.5,-60.4 6.9,-2.4 12.9,-4.7 13.4,-5.1 0.5,-0.4 -2,-10 -5.4,-21.3 -6.9,-22.4 -6.3,-21.5 -13.5,-19 z"
       id="path18"
       style="fill:#ffffff;stroke:none" />
    <path
       d="m 819.19841,690.3785 c -3,0.5 -5.6,1.1 -5.8,1.2 -0.2,0.3 1.6,13.4 3.7,26.2 0.5,3.3 7.3,48.3 15.1,100 15.5,103.1 19.5,129.4 20.4,134.1 l 0.5,3 5.3,-0.7 c 2.8,-0.4 7.3,-0.8 10,-0.8 4.4,-0.1 4.7,-0.3 4.2,-2.4 -0.2,-1.2 -3,-19.5 -6,-40.7 -5.7,-39.2 -20.7,-138.6 -22.6,-149.5 -0.9,-5.1 -4.5,-29 -7.9,-51.5 -0.6,-3.6 -1.5,-9.5 -2.2,-13.3 l -1.1,-6.7 -4.1,0.1 c -2.3,0.1 -6.5,0.5 -9.5,1 z"
       id="path20"
       style="fill:#ffffff;stroke:none" />
    <path
       d="m 931.09841,689.5785 c 0,0.1 -2.7,18.2 -6,40.2 -22,145.5 -33.4,223.5 -32.9,223.9 0.8,0.9 18.2,4.6 18.8,4.1 0.3,-0.3 2,-10.1 3.7,-21.8 1.8,-11.7 4.7,-30.2 6.4,-41.2 8.4,-54.6 30,-199.8 30,-201.7 0,-1.1 -2.4,-1.8 -8.9,-2.6 -9.1,-1.2 -11.1,-1.4 -11.1,-0.9 z"
       id="path22"
       style="fill:#ffffff;stroke:none" />
    <path
       d="m 707.79841,724.3785 -7.7,3.9 1.9,3.8 c 1,2 7.3,14.9 13.9,28.7 6.6,13.7 17.9,37.4 25.2,52.5 15.3,31.8 66.9,140.5 71,149.7 l 2.8,6.1 9,-4.5 9,-4.5 -6.4,-13.5 c -3.5,-7.5 -7.6,-16.3 -9,-19.7 -3,-6.9 -34.8,-73.7 -73,-152.8 -17.4,-36.2 -26.4,-53.8 -27.4,-53.7 -0.8,0 -5,1.8 -9.3,4 z"
       id="path24"
       style="fill:#ffffff;stroke:none" />
    <path
       d="m 1043.2984,725.4785 c -2.3,4.9 -14.1,29.3 -24.2,50.3 -3.7,7.7 -11.6,23.9 -17.5,36 -5.89999,12.1 -12.19999,25.1 -13.99999,29 -1.8,3.8 -9,18.9 -16,33.5 -18.4,38.3 -23.2,48.5 -24,51 -0.4,1.2 -4.9,10.9 -9.9,21.4 l -9.3,19.2 8.4,5.3 c 4.6,2.9 8.6,5.1 8.8,4.9 0.2,-0.2 12.4,-25.5 27,-56.3 14.7,-30.8 33.49999,-70.2 41.69999,-87.5 8.3,-17.3 17.2,-36 19.8,-41.5 2.6,-5.5 9.4,-19.5 15,-31 9.7,-20 14,-29.2 14,-30.1 0,-0.5 -15.7,-8.4 -16.9,-8.4 -0.5,0 -1.8,1.9 -2.9,4.2 z"
       id="path26"
       style="fill:#ffffff;stroke:none" />
    <path
       d="m 612.69841,793.1785 -7,7 11,11.8 c 14.9,16 113.3,122.3 120.3,129.9 3.1,3.3 15.3,16.5 27.1,29.2 l 21.5,23.1 6.8,-6.7 c 3.7,-3.6 6.7,-7 6.7,-7.4 0,-0.4 -13.9,-15.9 -30.8,-34.5 -17,-18.6 -36.2,-39.7 -42.8,-46.9 -6.5,-7.3 -12.4,-13.4 -12.9,-13.5 -0.9,-0.3 -42,-44.3 -85,-90.9 -3.8,-4.1 -7.2,-7.6 -7.5,-7.8 -0.3,-0.1 -3.6,2.9 -7.4,6.7 z"
       id="path28"
       style="fill:#ffffff;stroke:none" />
    <path
       d="m 1098.9984,834.9785 c -23.9,25.7 -53.1,57.1 -64.9,69.8 -11.8,12.7 -26.2,28.2 -32,34.4 -5.79999,6.3 -18.29999,19.8 -27.79999,30 l -17.2,18.5 2.9,3 c 1.6,1.7 4.4,5.2 6.4,7.8 l 3.5,4.6 20.3,-21.6 c 30.39999,-32.3 90.19999,-96.4 99.89999,-107.1 4.7,-5.2 21.7,-23.6 37.7,-41 l 29.3,-31.6 -6.7,-6.7 c -3.7,-3.8 -7,-6.8 -7.4,-6.8 -0.4,0 -20.2,21 -44,46.7 z"
       id="path30"
       style="fill:#ffffff;stroke:none" />
    <path
       d="m 1211.5984,821.7785 c -9.3,7.5 -17.1,14 -17.3,14.5 -0.2,0.5 1.6,3.6 4.1,6.7 6.5,8.6 17.6,25.4 24.1,36.7 27.3,47.3 42.9,99.1 46.8,155.3 l 1.2,17.3 4.5,0 c 6.8,-0.1 41.3,-2.9 41.9,-3.5 1.9,-1.9 -2.5,-38.6 -7.7,-64.5 -1.8,-9 -6.1,-26 -8.1,-32.5 -0.5,-1.7 -2.1,-7.1 -3.5,-12 -1.5,-5 -3.5,-10.9 -4.6,-13.2 -1,-2.4 -1.9,-4.7 -1.9,-5.1 0,-1 -4.2,-11.6 -7.6,-19 -1.3,-2.9 -2.4,-5.5 -2.4,-5.8 0,-0.6 -6.5,-14.9 -8,-17.4 -0.4,-0.8 -3.2,-6 -6,-11.5 -2.9,-5.5 -5.8,-10.7 -6.4,-11.5 -0.6,-0.8 -2.2,-3.5 -3.5,-6 -1.3,-2.5 -3.2,-5.4 -4.2,-6.6 -1.1,-1.1 -1.9,-2.4 -1.9,-2.9 0,-0.4 -1.1,-2.3 -2.5,-4.1 -1.4,-1.8 -2.5,-3.6 -2.5,-4 0,-0.5 -10.4,-15.1 -16.2,-22.6 -1.2,-1.6 -2.8,-0.6 -18.3,11.7 z"
       id="path32"
       style="fill:#ffffff;stroke:none" />
    <path
       d="m 541.49841,881.9785 c -1.5,2.7 -3.6,6.3 -4.6,8 -1.1,1.8 -1.7,3.7 -1.4,4.2 0.3,0.5 5.9,3.9 12.3,7.7 6.5,3.7 19.7,11.3 29.3,16.9 9.6,5.6 26.7,15.5 38,22 31.3,18 57.4,33.3 105,61.6 24,14.2 44.1,25.9 44.8,26.1 1,0.2 7.6,-12.8 8.5,-16.6 0.1,-0.5 -7.2,-5.3 -16.3,-10.8 -9.1,-5.4 -17.4,-10.6 -18.5,-11.6 -1.1,-1 -5.6,-3.9 -10,-6.4 -4.4,-2.5 -22.6,-13.1 -40.5,-23.5 -17.9,-10.5 -35,-20.4 -38,-22 -3,-1.6 -13.1,-7.3 -22.5,-12.8 -34,-19.6 -42.4,-24.4 -62.2,-35.9 -11.1,-6.4 -20.5,-11.6 -20.7,-11.6 -0.3,0 -1.7,2.1 -3.2,4.7 z"
       id="path34"
       style="fill:#ffffff;stroke:none" />
    <path
       d="m 1197.5984,889.3785 c -10.4,6.1 -38.3,22.2 -62,35.9 -97.6,56.3 -110.8,63.9 -112.3,65.3 -1,0.8 -10.9,6.7 -22.2,13.2 -11.29999,6.5 -20.99999,12.2 -21.59999,12.6 -0.8,0.6 0,3.7 2.4,10.4 2.4,6.3 3.9,9.2 4.6,8.6 0.6,-0.4 19.99999,-11.8 43.09999,-25.1 41.9,-24.3 63.3,-36.8 77.5,-45.3 8.7,-5.1 52.3,-30.4 92,-53.2 15.1,-8.7 27.7,-15.9 27.8,-16.1 0.5,-0.4 -9.1,-17.4 -9.7,-17.4 -0.3,0.1 -9.1,5.1 -19.6,11.1 z"
       id="path36"
       style="fill:#ffffff;stroke:none" />
    <path
       d="m 1336.5984,906.3785 c -22.5,9.2 -40.9,17.2 -40.8,17.6 0.1,0.4 1.2,3.3 2.3,6.3 10.4,27 20.8,77.3 22.6,109.5 l 0.7,12.1 -18.4,1.2 c -10.1,0.7 -21.7,1.5 -25.6,1.9 l -7.3,0.6 0,23.7 c 0,32.7 -2,56 -7,80.2 l -1.7,8.8 3.6,0.9 c 2,0.5 12.2,2.8 22.6,5.1 10.5,2.3 19.6,4.4 20.3,4.6 1.5,0.4 0.8,6 -0.9,7.8 -0.5,0.6 -0.9,1.7 -0.9,2.6 0,1.8 -7.3,26 -11.3,37.5 -7.1,20.4 -20,47.8 -31.4,66.8 -1.9,3.2 -3.3,6 -3.1,6.2 0.2,0.2 17.6,10.5 38.8,22.9 l 38.4,22.5 3.4,-5.7 c 1.9,-3.1 7.4,-13.4 12.3,-22.7 25.9,-50.1 44.2,-106.7 52.8,-163 4.5,-29.4 5.5,-44.6 5.5,-80 0,-42 -2.4,-67.5 -10,-105.5 -5.1,-25.8 -20.4,-78 -22.9,-78.6 -0.6,-0.1 -19.4,7.4 -42,16.7 z"
       id="path38"
       style="fill:#ffffff;stroke:none" />
    <path
       d="m 468.99841,926.9785 c -1.4,3.8 -5.3,15.8 -6.9,21.3 -0.7,2.5 -1.6,5.6 -2.1,7 -1.5,4.7 -6.9,27.9 -6.9,30 0,1.2 -0.4,2.9 -1,3.9 -1.9,3.6 -5.9,34.2 -7.1,54.5 -1.3,22.5 -0.8,60.2 1,74.6 0.6,4.7 1.8,14.1 2.7,21 0.8,6.9 2.6,17.4 4,23.5 3.1,14.3 3.5,15.5 4.4,15.5 0.9,0 39.9,-8.8 41.6,-9.5 0.9,-0.2 0.7,-2.8 -0.6,-9.2 -5.2,-25.4 -7,-47.4 -7,-85.8 0,-40 1.8,-60.8 7.6,-89 2.6,-12.1 7.9,-32.2 10.9,-40.4 0.8,-2.4 1.4,-4.5 1.3,-4.7 -0.6,-0.6 -38.9,-15.4 -39.8,-15.4 -0.6,0 -1.5,1.2 -2.1,2.7 z"
       id="path40"
       style="fill:#ffffff;stroke:none" />
    <path
       d="m 858.59841,957.2785 c -23.7,3.7 -45.7,14.9 -62.6,31.9 -14.7,14.7 -24.2,31.5 -29.6,52.2 -2.4,9.3 -2.7,12.1 -2.7,26.9 0,14.6 0.3,17.6 2.6,26.1 5.7,20.9 15.2,37.6 29.7,52 12.2,12.2 26,21 41.1,26.2 11.2,4 19.2,5.5 32,6.2 31.7,1.8 61.3,-9.6 84.1,-32.4 14.6,-14.5 24.1,-31.3 29.7,-52 2.2,-8.5 2.5,-11.5 2.5,-26.6 0,-15.1 -0.3,-18.1 -2.5,-26.6 -5.6,-20.7 -15.1,-37.5 -29.7,-52 -20.6,-20.7 -45.9,-31.6 -75.1,-32.4 -7.4,-0.2 -16.2,0 -19.5,0.5 z m 37,42 c 12.3,3.9 20.2,8.7 29.5,18 9.4,9.4 14.2,17.2 18.2,30 1.9,6.2 2.3,9.7 2.3,20.5 0,14.8 -1.8,22.5 -8.3,35 -5,9.5 -18.2,22.7 -27.7,27.7 -12.5,6.5 -20.2,8.3 -35,8.3 -14.8,0 -22.5,-1.8 -35,-8.3 -9.5,-5 -22.7,-18.2 -27.7,-27.7 -6.5,-12.5 -8.3,-20.2 -8.3,-35 0,-10.8 0.4,-14.3 2.3,-20.5 4,-12.8 8.8,-20.6 18.2,-30 10.8,-10.9 21.7,-16.7 37.1,-20 7.6,-1.6 26.5,-0.5 34.4,2 z"
       id="path42"
       style="fill:#ffffff;stroke:none" />
    <path
       d="m 501.59841,987.4785 c -0.7,2 -3.6,18.1 -3.3,18.3 0.2,0.2 21.5,5.1 47.3,11 77.8,17.7 122.7,28.1 169.2,39.1 24.2,5.7 44.4,10.4 44.7,10.4 0.3,0 0.6,-2.1 0.7,-4.8 0,-2.6 0.4,-7 0.8,-9.9 l 0.7,-5.2 -17.5,-4.1 c -9.7,-2.3 -20.5,-5 -24.1,-6 -8,-2.3 -102.9,-24.2 -167,-38.5 -26.1,-5.8 -48.3,-10.9 -49.3,-11.1 -0.9,-0.3 -1.9,0.1 -2.2,0.8 z"
       id="path44"
       style="fill:#ffffff;stroke:none" />
    <path
       d="m 1239.0984,991.2785 c -9.1,2.2 -18.5,4.3 -21,4.9 -2.5,0.6 -8.3,1.9 -13,3 -4.7,1.1 -19.5,4.5 -33,7.5 -65.7,14.8 -84.1,19 -157,36 l -26.49999,6.2 0.4,10 c 0.2,5.4 0.4,10 0.5,10.1 0.1,0.1 13.69999,-2.9 30.09999,-6.7 16.5,-3.8 44.9,-10.2 63,-14.4 37,-8.4 134.8,-30.9 144,-33.1 3.3,-0.8 12.5,-2.9 20.5,-4.6 8,-1.8 14.8,-3.5 15.2,-3.9 0.4,-0.3 0,-4.7 -0.9,-9.8 -1.5,-8.2 -1.9,-9.2 -3.7,-9.1 -1.2,0 -9.5,1.8 -18.6,3.9 z"
       id="path46"
       style="fill:#ffffff;stroke:none" />
    <path
       d="m 349.49841,1050.9785 c -1,8.6 0.3,57.6 2.1,74.3 11.7,110.2 52.6,207.3 123,291.5 12.7,15.2 46.8,49.9 48.5,49.3 0.7,-0.2 14.8,-14.9 31.4,-32.8 l 30.2,-32.3 -14.1,-14.1 c -7.8,-7.8 -17.4,-17.9 -21.4,-22.6 -4,-4.7 -8.2,-9.6 -9.5,-11 -5.4,-6 -30,-40.3 -32.6,-45.5 -0.3,-0.6 -1.3,-2.2 -2.3,-3.7 -1,-1.5 -1.6,-3.1 -1.3,-3.6 0.3,-0.5 9.4,-6 20.1,-12.2 10.7,-6.1 19.5,-11.5 19.5,-11.9 0,-0.5 -2.3,-4.8 -5.1,-9.7 -14.6,-25.4 -29,-60.9 -35.5,-87.4 -1,-4.1 -1.9,-7.6 -1.9,-7.8 -0.1,-0.1 -7,1.3 -15.4,3.3 -8.4,1.9 -18.2,4.1 -21.9,4.9 -3.7,0.8 -7.4,1.7 -8.3,2.1 -1.3,0.5 -1.8,-0.5 -2.7,-4.7 -0.7,-2.9 -2.1,-9.4 -3.2,-14.3 -5.4,-23.9 -9,-60.6 -9,-91.9 l 0,-18.4 -6.7,-0.6 c -3.8,-0.3 -21.2,-1.7 -38.8,-3.1 -17.6,-1.3 -34.8,-2.7 -38.2,-3 l -6.1,-0.6 -0.8,5.8 z"
       id="path48"
       style="fill:#ffffff;stroke:none" />
    <path
       d="m 732.59841,1084.5785 c -27.6,1.8 -113.6,8 -161.5,11.7 -13.5,1.1 -36.1,2.8 -50.3,3.8 -14.2,1.1 -25.9,2.1 -26.1,2.3 -0.5,0.6 0.8,18.7 1.4,19.2 0.5,0.3 15.3,-0.6 56,-3.7 30.5,-2.4 53.1,-4 132.5,-9.6 82.4,-5.8 80.6,-5.6 79.9,-7.4 -0.3,-0.8 -1.3,-5.1 -2.2,-9.7 l -1.7,-8.4 -28,1.8 z"
       id="path50"
       style="fill:#ffffff;stroke:none" />
    <path
       d="m 988.09841,1084.4785 c 0,1.3 -0.9,5.8 -1.9,10 l -1.8,7.8 2.6,0 c 3.2,0 84.19999,5.4 135.59999,9 22,1.6 75.5,5.6 125,9.3 9.4,0.8 17.2,1.2 17.5,1 0.6,-0.6 1.9,-18.7 1.4,-19.2 -0.3,-0.3 -11.3,-1.3 -24.7,-2.3 -13.3,-1 -35.2,-2.7 -48.7,-3.8 -48.1,-4 -127.2,-9.7 -147,-10.6 -6.3,-0.2 -21.4,-1.1 -33.5,-1.9 -12.1,-0.8 -22.59999,-1.5 -23.19999,-1.5 -0.7,0 -1.3,1 -1.3,2.2 z"
       id="path52"
       style="fill:#ffffff;stroke:none" />
    <path
       d="m 976.99841,1120.0785 -4.6,8.8 27.1,10.9 c 31.89999,12.7 155.59999,61.5 173.59999,68.6 6.9,2.6 23.4,9.1 36.7,14.4 13.4,5.2 24.9,9.5 25.6,9.5 0.8,0 2.1,-1.7 2.9,-3.8 0.9,-2 2.5,-6 3.6,-8.8 l 2.1,-5.1 -14.7,-5.8 c -8.1,-3.1 -36.3,-14.3 -62.7,-24.7 -63,-24.9 -184.49999,-72.8 -184.79999,-72.8 -0.2,0 -2.3,4 -4.8,8.8 z"
       id="path54"
       style="fill:#ffffff;stroke:none" />
    <path
       d="m 747.09841,1124.7785 c -11.3,4.5 -28.8,11.5 -39,15.5 -10.2,4 -29.3,11.5 -42.5,16.7 -13.2,5.2 -33.7,13.3 -45.5,17.9 -11.8,4.7 -24.6,9.8 -28.5,11.4 -3.8,1.6 -14.6,5.9 -24,9.5 -9.3,3.6 -17.9,7 -19,7.5 -1.1,0.5 -7.8,3.2 -15,6 -7.1,2.8 -13.6,5.4 -14.4,5.9 -1.2,0.8 -0.8,2.5 2.3,9.9 l 3.8,8.9 6.1,-2.4 c 3.4,-1.4 7.6,-3 9.2,-3.8 1.7,-0.7 4.1,-1.6 5.5,-2 1.4,-0.4 3.9,-1.3 5.5,-2.1 1.7,-0.7 8.4,-3.4 15,-5.9 6.6,-2.5 12.9,-5 14,-5.5 1.1,-0.5 5.8,-2.4 10.5,-4.1 7.8,-3 29.9,-11.6 72.5,-28.4 8.8,-3.5 22.5,-8.9 30.5,-12 29.9,-11.7 39.5,-15.5 41.3,-16.5 1.4,-0.9 9.6,-4.1 42.4,-17 2.1,-0.9 2,-1.1 -3,-9.4 -2.8,-4.8 -5.5,-8.6 -6.1,-8.5 -0.6,0 -10.3,3.8 -21.6,8.4 z"
       id="path56"
       style="fill:#ffffff;stroke:none" />
    <path
       d="m 958.89841,1145.6785 -6.7,7.3 3.2,2.4 c 1.7,1.3 34,26.8 71.69999,56.8 37.7,30 78.2,62.1 90,71.5 11.8,9.3 29.4,23.2 39,30.9 l 17.4,14 6.8,-7.4 c 5.2,-5.7 6.5,-7.6 5.5,-8.5 -1.9,-1.8 -128.7,-102.8 -153.3,-122.2 -12,-9.4 -31.9,-25.1 -44.09999,-34.7 -12.2,-9.6 -22.4,-17.5 -22.5,-17.5 -0.2,0.1 -3.3,3.4 -7,7.4 z"
       id="path58"
       style="fill:#ffffff;stroke:none" />
    <path
       d="m 712.09841,1205.3785 c -42.1,33.6 -77.8,62.1 -79.3,63.5 -1.5,1.4 -15.1,12.3 -30.1,24.3 l -27.3,21.8 6.6,7.6 6.6,7.5 4,-3.2 c 2.2,-1.8 40.9,-32.6 86,-68.5 45.1,-35.9 82.7,-66.1 83.5,-67 0.8,-0.9 10.4,-8.8 21.3,-17.5 10.9,-8.7 19.6,-15.9 19.5,-16 -0.2,-0.1 -3.5,-3.2 -7.3,-6.8 l -7.1,-6.7 -76.4,61 z"
       id="path60"
       style="fill:#ffffff;stroke:none" />
    <path
       d="m 936.39841,1164.6785 -8.2,5.2 13.8,19.9 c 29.5,42.9 92.39999,134.8 127.99999,187 9.6,14.1 17.7,25.8 18,25.9 0.8,0.5 16,-9.7 16.1,-10.6 0,-0.4 -13.9,-21.1 -30.8,-46 -17,-24.9 -36.9,-54.3 -44.4,-65.3 -12.7,-18.7 -27,-39.6 -66.59999,-96.9 -9,-12.9 -16.6,-23.8 -17,-24 -0.4,-0.2 -4.4,1.9 -8.9,4.8 z"
       id="path62"
       style="fill:#ffffff;stroke:none" />
    <path
       d="m 771.79841,1226.2785 c -22.9,33.4 -41.7,61.1 -41.7,61.5 0,0.4 -15.8,23.9 -35,52.1 -19.3,28.3 -35.3,52 -35.6,52.8 -0.4,1.1 10.9,9.7 14.7,11.1 0.9,0.3 22.1,-29.9 63.4,-90.6 34.1,-50.1 62.5,-92 63.2,-93.3 0.6,-1.2 7.8,-11.8 15.8,-23.5 8,-11.7 14.5,-21.4 14.3,-21.6 -0.2,-0.2 -4.1,-2.3 -8.9,-4.8 l -8.5,-4.4 -41.7,60.7 z"
       id="path64"
       style="fill:#ffffff;stroke:none" />
    <path
       d="m 1258.6984,1179.1785 c -5.2,21.8 -17.9,54.5 -29.8,77.1 -17.5,33.3 -35.9,57.9 -66.2,88.7 l -18.8,19.2 2.7,3.3 c 6.6,7.9 27.8,29.8 28.9,29.8 2.6,0 37.9,-37.7 48.6,-51.9 3,-4 6.9,-9 8.6,-11 3,-3.4 6.6,-8.6 10.8,-15.5 1.1,-1.7 5,-7.7 8.8,-13.4 3.7,-5.7 6.8,-10.7 6.8,-11 0,-0.4 1.1,-2.3 2.4,-4.2 6.3,-9.4 23.6,-46.6 29,-62.5 2.7,-7.9 3.4,-9.6 5.4,-14.5 0.5,-1.4 1.5,-4.5 2.2,-7 0.6,-2.5 1.6,-5.3 2.1,-6.2 0.5,-1 0.9,-2.9 0.9,-4.2 0,-1.4 0.4,-2.7 0.9,-3 0.5,-0.3 1.1,-2 1.4,-3.8 0.3,-1.8 0.8,-4.2 1.2,-5.3 0.6,-1.9 -0.1,-2.2 -7.7,-3.8 -4.6,-1 -14.6,-3.3 -22.3,-5.1 l -14.1,-3.2 -1.8,7.5 z"
       id="path66"
       style="fill:#ffffff;stroke:none" />
    <path
       d="m 912.09841,1176.1785 c -4.1,1.5 -8.1,2.9 -8.9,3.2 -1.6,0.6 5.4,24.1 43.9,148.4 3.8,12.1 13.6,44 21.9,70.9 8.3,26.9 15.3,49.2 15.6,49.4 0.8,0.9 17.69999,-4.1 18.19999,-5.4 0.2,-0.6 -1.2,-6.3 -3.09999,-12.5 -5.4,-17.4 -56.8,-184.4 -71.4,-232.2 -4.2,-13.6 -7.8,-24.6 -8.1,-24.6 -0.4,0.1 -4,1.4 -8.1,2.8 z"
       id="path68"
       style="fill:#ffffff;stroke:none" />
    <path
       d="m 840.79841,1178.8785 c -0.2,0.5 -1.2,3.6 -2.2,6.9 -5.1,18.1 -35.8,119.9 -50.1,166.3 -27.7,89.7 -28.2,91.6 -27,92.3 2.2,1.2 17.8,5 18.3,4.5 0.5,-0.4 16,-50.2 33.8,-108.6 3,-9.6 8.7,-28.3 12.8,-41.5 4.1,-13.3 10,-33.3 13.2,-44.5 3.2,-11.3 9.2,-32.2 13.5,-46.5 l 7.6,-26 -6.5,-1.2 c -3.6,-0.6 -8,-1.4 -9.7,-1.8 -1.7,-0.4 -3.4,-0.3 -3.7,0.1 z"
       id="path70"
       style="fill:#ffffff;stroke:none" />
    <path
       d="m 879.89841,1181.9785 -7.8,0.4 0,138.9 0,139 10,0 10,0 0,-139.5 0,-139.5 -2.2,0.2 c -1.3,0.1 -5.8,0.4 -10,0.5 z"
       id="path72"
       style="fill:#ffffff;stroke:none" />
    <path
       d="m 526.59841,1289.3785 c -9.3,5.5 -17.6,10.3 -18.4,10.8 -1.1,0.7 -0.3,2.5 3.5,8.5 7.9,12.3 28,39.3 37.8,50.6 11.6,13.5 37.9,39.5 49.3,48.8 17.1,13.9 26.1,20.8 32.9,25.3 14.5,9.6 21.4,13.9 22.3,13.9 0.5,0 1.1,0.3 1.3,0.8 0.2,0.4 3.7,2.7 7.8,5 4.1,2.4 8.2,4.7 9,5.2 4.6,2.8 19.9,10 21.1,10 0.8,-0.1 5.3,-8.3 10.5,-19.3 l 9.2,-19.2 -13.1,-6.8 c -33.9,-17.8 -58.9,-36.2 -89.1,-65.7 -28.6,-27.9 -46.1,-48.3 -60.1,-70.2 -2.8,-4.3 -5.4,-7.7 -6,-7.7 -0.5,0 -8.6,4.5 -18,10 z"
       id="path74"
       style="fill:#ffffff;stroke:none" />
    <path
       d="m 1254.5984,1308.1785 c -1.9,3.1 -3.9,6.3 -4.5,7.1 -0.5,0.8 -2.8,4.2 -5,7.5 -6,9.1 -7.1,10.5 -11.8,16.5 -2.4,3 -5.3,6.8 -6.5,8.4 -8.7,11.4 -19.4,23.5 -34,38.1 l -16.8,16.9 -8.7,-8.9 c -4.8,-5 -12.6,-13.1 -17.3,-18.2 l -8.5,-9.1 -8.4,7.4 c -21.8,19.2 -50.1,38.4 -76.1,51.5 -7.2,3.6 -7.8,4.1 -7,6.1 0.5,1.3 5.1,10.8 10.2,21.3 5.2,10.4 9.5,19.2 9.6,19.5 0.2,0.3 -2.3,1.6 -5.5,2.9 -3.1,1.4 -8.4,3.7 -11.7,5.1 -25.9,11.4 -63.19999,22.4 -94.69999,27.8 -5.3,0.9 -9.9,1.9 -10.2,2.2 -0.3,0.3 2.4,19.9 5.9,43.5 3.6,23.7 6.5,43.6 6.5,44.3 0,0.9 1,1.1 3.8,0.7 88.19999,-14.7 167.99999,-48.7 237.69999,-101.4 19.3,-14.5 34.2,-27.7 54.5,-48.1 21.3,-21.2 34.7,-36.6 50.3,-57.4 8.3,-11.1 26.1,-37.4 28.5,-42.1 0.9,-1.8 -2.1,-3.8 -37.9,-24.6 l -38.9,-22.7 -3.5,5.7 z"
       id="path76"
       style="fill:#ffffff;stroke:none" />
    <path
       d="m 572.09841,1418.9785 c -8,8.6 -21.8,23.4 -30.8,32.9 l -16.2,17.3 10.7,9.1 c 112.7,95.8 258.8,140.1 406.7,123.4 7.7,-0.9 14.3,-1.8 14.5,-2 0.4,-0.4 -11,-79 -12.5,-86.7 -0.5,-2.5 -0.9,-2.7 -3.3,-2.2 -4.1,0.9 -20.6,2.3 -40.8,3.5 -17.9,1.1 -37.6,0.5 -62.3,-2 -4.7,-0.4 -11.8,-1.2 -15.8,-1.6 l -7.4,-0.7 0.6,-3.1 c 1.1,-5.3 6.6,-42.5 6.6,-44.5 0,-1.5 -1,-2 -6.2,-2.5 -24.8,-2.7 -67.9,-14.6 -92.2,-25.6 -3.7,-1.6 -7.2,-3 -7.7,-3 -0.5,0 -1.5,1.5 -2.3,3.2 -0.8,1.8 -4.7,10.3 -8.9,18.8 -4.1,8.5 -7.7,16.8 -8.1,18.3 -0.4,1.6 -1,2.7 -1.5,2.5 -1.9,-0.7 -20.6,-10.3 -21.1,-10.8 -0.3,-0.3 -2.5,-1.6 -5,-2.9 -12,-6.3 -14.2,-7.6 -25.1,-14.8 -3.6,-2.3 -7,-4.3 -7.6,-4.3 -0.6,0 -1.3,-0.4 -1.5,-0.8 -0.1,-0.5 -3.4,-3 -7.3,-5.7 -3.8,-2.6 -9.7,-6.9 -13,-9.4 -3.3,-2.5 -6.4,-4.9 -7,-5.3 -2.6,-1.9 -16.2,-13.4 -17.8,-15 -1,-1 -2.1,-1.8 -2.5,-1.8 -0.4,0 -7.2,7.1 -15.2,15.7 z"
       id="path78"
       style="fill:#ffffff;stroke:none" />
    <path
       d="m 1038.2984,1433.8785 c -31.1,14.5 -75.49999,25.3 -117.19999,28.5 -15.2,1.1 -82.3,0.6 -91.6,-0.7 l -4,-0.6 -3.2,21.4 c -1.8,11.7 -3.2,22.1 -3.2,23 0,1.3 1.2,1.8 5.3,2.2 2.8,0.2 10.4,1 16.7,1.7 15.2,1.7 62.9,1.7 79.5,0.1 25.6,-2.6 48.5,-6.7 72,-12.8 3.3,-0.9 8.29999,-2.2 10.99999,-2.9 5.3,-1.3 19.7,-6 23,-7.4 5.1,-2.2 12.9,-5.1 13.7,-5.1 0.6,0 2.6,-0.7 4.6,-1.6 2.1,-0.9 4.6,-2 5.7,-2.4 1.1,-0.5 5,-2.2 8.7,-3.9 l 6.7,-3.1 -7.3,-15.2 c -10.7,-22.4 -11.9,-24.8 -12.5,-24.7 -0.4,0 -3.9,1.6 -7.9,3.5 z"
       id="path80"
       style="fill:#ffffff;stroke:none" />
  </g>
</svg>
